<svg xmlns="http://www.w3.org/2000/svg" xmlns:xlink="http://www.w3.org/1999/xlink" width="250" zoomAndPan="magnify" viewBox="0 0 224.87999 225" height="250" preserveAspectRatio="xMidYMid meet" version="1.0"><defs><clipPath id="9dceca710c"><path d="M 53 7.878906 L 177 7.878906 L 177 194 L 53 194 Z M 53 7.878906 " clip-rule="nonzero"/></clipPath><clipPath id="0dc259b085"><path d="M 34.640625 18 L 76 18 L 76 81 L 34.640625 81 Z M 34.640625 18 " clip-rule="nonzero"/></clipPath><clipPath id="cd189287c9"><path d="M 163 80 L 190.554688 80 L 190.554688 103 L 163 103 Z M 163 80 " clip-rule="nonzero"/></clipPath></defs><g clip-path="url(#9dceca710c)"><path fill="#cad2c5" d="M 53.96875 93.164062 C 53.96875 93.164062 99.515625 108.285156 83.488281 50.554688 C 83.488281 50.554688 117.359375 92.414062 130.417969 7.878906 C 130.417969 7.878906 127.355469 97.722656 160.546875 60.96875 C 160.546875 60.96875 131.515625 116.488281 176.828125 121.222656 C 176.828125 121.222656 124.683594 118.371094 154.683594 155.421875 C 154.683594 155.421875 118.988281 141.417969 129.179688 181.167969 C 129.179688 181.167969 115.398438 143.253906 76.878906 193.347656 C 76.878906 193.347656 115.398438 121.21875 55.835938 144.277344 C 55.835938 144.277344 88.816406 113.851562 53.96875 93.164062 Z M 53.96875 93.164062 " fill-opacity="1" fill-rule="nonzero"/></g><g clip-path="url(#0dc259b085)"><path fill="#0d1321" d="M 65.96875 80.828125 C 65.867188 80.828125 65.769531 80.773438 65.722656 80.675781 C 65.640625 80.515625 57.742188 64.558594 52.636719 65.101562 C 51.164062 65.257812 50.039062 66.867188 49.285156 69.882812 C 49.25 70.015625 49.125 70.105469 48.988281 70.089844 C 48.851562 70.074219 48.746094 69.957031 48.746094 69.820312 C 48.742188 69.710938 48.582031 58.855469 43.238281 55.300781 C 41.078125 53.867188 38.335938 53.808594 35.078125 55.125 C 34.941406 55.179688 34.78125 55.117188 34.722656 54.980469 C 34.664062 54.84375 34.722656 54.6875 34.859375 54.625 C 34.929688 54.589844 42.019531 51.257812 41.953125 47.375 C 41.917969 45.34375 39.910156 43.46875 35.984375 41.804688 C 35.871094 41.757812 35.804688 41.636719 35.820312 41.515625 C 35.839844 41.390625 35.9375 41.296875 36.0625 41.28125 C 36.113281 41.277344 41.210938 40.652344 42.324219 37.675781 C 43.03125 35.785156 42.011719 33.320312 39.292969 30.351562 C 39.191406 30.242188 39.195312 30.078125 39.300781 29.972656 C 39.402344 29.871094 39.570312 29.863281 39.679688 29.960938 C 39.707031 29.988281 42.703125 32.628906 45.835938 31.535156 C 49 30.425781 51.238281 26.054688 52.488281 18.535156 C 52.511719 18.394531 52.636719 18.300781 52.78125 18.308594 C 52.921875 18.320312 53.03125 18.4375 53.03125 18.582031 C 53.03125 18.71875 53.097656 32.296875 57.957031 34.097656 C 60.074219 34.878906 62.863281 33.292969 66.242188 29.375 C 66.328125 29.273438 66.472656 29.25 66.589844 29.316406 C 66.703125 29.382812 66.753906 29.519531 66.710938 29.644531 C 66.6875 29.707031 64.492188 36.164062 67.300781 40.304688 C 68.757812 42.453125 71.324219 43.628906 74.917969 43.796875 C 75.058594 43.804688 75.171875 43.914062 75.179688 44.054688 C 75.191406 44.195312 75.089844 44.316406 74.953125 44.339844 C 74.894531 44.351562 69.21875 45.363281 67.925781 49.242188 C 66.933594 52.214844 68.695312 56.09375 73.152344 60.773438 C 73.242188 60.867188 73.253906 61.011719 73.179688 61.117188 C 73.105469 61.226562 72.964844 61.265625 72.84375 61.214844 C 72.796875 61.191406 67.917969 59.171875 65.210938 61.703125 C 62.464844 64.269531 62.816406 70.757812 66.226562 80.464844 C 66.273438 80.601562 66.207031 80.75 66.074219 80.808594 C 66.039062 80.824219 66.003906 80.828125 65.96875 80.828125 Z M 52.878906 64.539062 C 56.929688 64.539062 62.136719 72.933594 64.683594 77.53125 C 62.148438 69.226562 62.195312 63.773438 64.839844 61.300781 C 67.019531 59.261719 70.328125 59.855469 72.007812 60.347656 C 67.953125 55.863281 66.402344 52.070312 67.402344 49.070312 C 68.363281 46.1875 71.410156 44.800781 73.300781 44.199219 C 70.34375 43.777344 68.175781 42.574219 66.84375 40.609375 C 64.597656 37.292969 65.328125 32.75 65.855469 30.632812 C 62.660156 34.078125 59.941406 35.417969 57.765625 34.613281 C 53.84375 33.160156 52.832031 25.152344 52.574219 21.027344 C 51.21875 27.300781 49.015625 31.003906 46.011719 32.050781 C 44.066406 32.730469 42.21875 32.140625 40.957031 31.480469 C 42.863281 33.96875 43.496094 36.113281 42.835938 37.871094 C 41.902344 40.367188 38.644531 41.339844 37.035156 41.671875 C 40.625 43.34375 42.464844 45.257812 42.5 47.367188 C 42.546875 50.089844 39.597656 52.457031 37.402344 53.839844 C 39.757812 53.363281 41.816406 53.699219 43.542969 54.847656 C 47.902344 57.746094 48.957031 64.960938 49.210938 68.207031 C 50.019531 65.933594 51.148438 64.707031 52.578125 64.554688 C 52.679688 64.542969 52.777344 64.539062 52.878906 64.539062 Z M 52.878906 64.539062 " fill-opacity="1" fill-rule="nonzero"/></g><path fill="#0d1321" d="M 137.6875 216.992188 C 137.640625 216.992188 137.597656 216.980469 137.554688 216.957031 C 137.429688 216.890625 137.375 216.734375 137.4375 216.601562 C 137.511719 216.441406 144.945312 200.257812 141.308594 196.652344 C 140.257812 195.613281 138.292969 195.753906 135.472656 197.074219 C 135.347656 197.132812 135.199219 197.089844 135.125 196.972656 C 135.050781 196.855469 135.074219 196.703125 135.179688 196.617188 C 135.265625 196.546875 143.609375 189.574219 143.007812 183.199219 C 142.761719 180.621094 141.078125 178.460938 138 176.769531 C 137.867188 176.699219 137.816406 176.535156 137.886719 176.402344 C 137.957031 176.269531 138.117188 176.21875 138.25 176.28125 C 138.320312 176.316406 145.386719 179.703125 148.363281 177.207031 C 149.925781 175.894531 150.117188 173.160156 148.9375 169.074219 C 148.902344 168.953125 148.953125 168.828125 149.058594 168.761719 C 149.164062 168.699219 149.300781 168.714844 149.390625 168.800781 C 149.429688 168.835938 153.125 172.394531 156.148438 171.378906 C 158.0625 170.734375 159.335938 168.390625 159.933594 164.410156 C 159.957031 164.265625 160.09375 164.164062 160.234375 164.179688 C 160.378906 164.195312 160.488281 164.320312 160.480469 164.464844 C 160.476562 164.503906 160.3125 168.492188 163.140625 170.222656 C 165.996094 171.976562 170.808594 170.949219 177.449219 167.179688 C 177.570312 167.109375 177.730469 167.144531 177.808594 167.261719 C 177.890625 167.378906 177.867188 167.539062 177.757812 167.628906 C 177.648438 167.714844 167.121094 176.328125 168.789062 181.226562 C 169.511719 183.359375 172.507812 184.515625 177.6875 184.660156 C 177.816406 184.664062 177.929688 184.761719 177.949219 184.890625 C 177.96875 185.023438 177.894531 185.148438 177.773438 185.191406 C 177.707031 185.214844 171.296875 187.585938 169.847656 192.371094 C 169.09375 194.855469 169.796875 197.582031 171.933594 200.472656 C 172.015625 200.585938 172 200.742188 171.898438 200.835938 C 171.792969 200.933594 171.636719 200.933594 171.53125 200.84375 C 171.488281 200.804688 167.121094 197.042969 163.285156 198.492188 C 160.347656 199.597656 158.4375 203.40625 157.609375 209.808594 C 157.589844 209.9375 157.484375 210.035156 157.355469 210.046875 C 157.226562 210.054688 157.109375 209.972656 157.070312 209.847656 C 157.058594 209.796875 155.554688 204.746094 151.878906 204.246094 C 148.152344 203.734375 143.320312 208.101562 137.917969 216.859375 C 137.867188 216.945312 137.777344 216.992188 137.6875 216.992188 Z M 139.402344 195.421875 C 140.363281 195.421875 141.128906 195.703125 141.695312 196.265625 C 144.613281 199.15625 141.25 208.828125 139.230469 213.816406 C 144.09375 206.617188 148.371094 203.210938 151.957031 203.703125 C 154.917969 204.109375 156.542969 207.039062 157.21875 208.652344 C 158.152344 202.683594 160.125 199.097656 163.09375 197.980469 C 165.941406 196.90625 168.941406 198.386719 170.601562 199.472656 C 169.0625 196.917969 168.632812 194.480469 169.320312 192.210938 C 170.484375 188.382812 174.480469 186.082031 176.460938 185.15625 C 171.765625 184.851562 169.011719 183.59375 168.265625 181.402344 C 166.921875 177.449219 172.515625 171.617188 175.566406 168.8125 C 169.828125 171.722656 165.558594 172.351562 162.847656 170.6875 C 161.09375 169.609375 160.386719 167.808594 160.105469 166.414062 C 159.371094 169.457031 158.101562 171.300781 156.320312 171.898438 C 153.785156 172.75 150.976562 170.835938 149.699219 169.800781 C 150.667969 173.636719 150.335938 176.265625 148.714844 177.625 C 146.625 179.378906 142.921875 178.585938 140.464844 177.757812 C 142.320312 179.28125 143.359375 181.085938 143.554688 183.148438 C 144.042969 188.351562 139.09375 193.71875 136.730469 195.960938 C 137.742188 195.601562 138.632812 195.421875 139.402344 195.421875 Z M 139.402344 195.421875 " fill-opacity="1" fill-rule="nonzero"/><g clip-path="url(#cd189287c9)"><path fill="#cad2c5" d="M 182.417969 100.234375 C 182.417969 100.234375 178.214844 93.25 173.871094 102.476562 C 173.871094 102.476562 174.144531 93.324219 163.066406 102.800781 C 163.066406 102.800781 173.445312 91.535156 165.074219 92.613281 C 165.074219 92.613281 174.992188 88.652344 169.664062 83.03125 C 169.664062 83.03125 176.082031 89.164062 176.324219 81.0625 C 176.324219 81.0625 179.378906 86.816406 182.476562 80.554688 C 182.476562 80.554688 180.046875 86.976562 190.585938 84.761719 C 190.585938 84.761719 177.597656 89.820312 187.855469 93.425781 C 187.851562 93.425781 180.214844 93.710938 182.417969 100.234375 Z M 182.417969 100.234375 " fill-opacity="1" fill-rule="nonzero"/></g></svg>