<svg xmlns="http://www.w3.org/2000/svg" xmlns:xlink="http://www.w3.org/1999/xlink" width="250" zoomAndPan="magnify" viewBox="0 0 224.87999 225" height="250" preserveAspectRatio="xMidYMid meet" version="1.0"><defs><clipPath id="9e816f14f2"><path d="M 28.894531 56 L 78 56 L 78 126 L 28.894531 126 Z M 28.894531 56 " clip-rule="nonzero"/></clipPath><clipPath id="dc0fab34d5"><path d="M 142 155 L 194 155 L 194 196.117188 L 142 196.117188 Z M 142 155 " clip-rule="nonzero"/></clipPath></defs><path fill="#0d1321" d="M 119.316406 183.171875 C 119.292969 183.171875 119.269531 183.167969 119.25 183.160156 C 119.152344 183.128906 119.089844 183.03125 119.105469 182.929688 C 119.148438 182.613281 123.359375 151.367188 111.871094 146.5 C 103.066406 142.773438 87.519531 155.082031 65.660156 183.085938 C 65.589844 183.175781 65.46875 183.195312 65.375 183.136719 C 65.28125 183.078125 65.25 182.957031 65.300781 182.859375 C 65.507812 182.449219 85.957031 141.792969 77.03125 132.027344 C 74.5 129.261719 69.765625 129.234375 62.957031 131.953125 C 62.851562 131.992188 62.730469 131.945312 62.683594 131.839844 C 62.636719 131.734375 62.683594 131.609375 62.785156 131.558594 C 63.066406 131.425781 90.777344 117.847656 92.335938 98.972656 C 93.125 89.445312 87.167969 80.128906 74.632812 71.289062 C 74.539062 71.222656 74.511719 71.101562 74.570312 71.003906 C 74.628906 70.90625 74.75 70.871094 74.847656 70.921875 C 74.90625 70.949219 80.515625 73.6875 87.425781 75.359375 C 98.933594 78.144531 105.140625 75.886719 108.324219 73.503906 C 114.101562 69.175781 115.894531 60.414062 113.644531 47.464844 C 113.625 47.371094 113.675781 47.277344 113.765625 47.234375 C 113.851562 47.195312 113.957031 47.21875 114.019531 47.292969 C 114.113281 47.410156 123.640625 58.839844 133.835938 56.625 C 141.71875 54.910156 147.941406 45.683594 152.324219 29.199219 C 152.328125 29.179688 152.332031 29.164062 152.335938 29.160156 C 152.335938 29.160156 152.335938 29.160156 152.335938 29.15625 C 152.367188 29.042969 152.484375 28.976562 152.597656 29.007812 C 152.710938 29.035156 152.777344 29.152344 152.75 29.265625 C 152.746094 29.28125 152.742188 29.292969 152.738281 29.304688 C 152.40625 30.570312 144.527344 61.148438 156.515625 69.582031 C 163.824219 74.722656 176.992188 70.734375 195.65625 57.726562 C 195.75 57.660156 195.882812 57.683594 195.949219 57.777344 C 196.019531 57.867188 196 58 195.910156 58.070312 C 195.824219 58.136719 187.238281 64.890625 179.324219 73.757812 C 172.046875 81.917969 163.867188 93.578125 166.222656 102.820312 C 168.050781 109.992188 175.9375 114.789062 189.664062 117.078125 C 189.773438 117.097656 189.851562 117.195312 189.839844 117.308594 C 189.832031 117.421875 189.734375 117.5 189.625 117.503906 C 189.375 117.496094 164.316406 117.113281 160.390625 127.558594 C 158.03125 133.839844 163.671875 142.769531 177.160156 154.097656 C 177.246094 154.171875 177.261719 154.300781 177.191406 154.390625 C 177.121094 154.484375 176.992188 154.503906 176.898438 154.4375 C 176.800781 154.367188 166.988281 147.609375 153.785156 150.71875 C 141.015625 153.722656 129.484375 164.605469 119.503906 183.058594 C 119.464844 183.128906 119.394531 183.171875 119.316406 183.171875 Z M 108.566406 145.429688 C 109.816406 145.429688 110.972656 145.65625 112.039062 146.105469 C 117.003906 148.210938 119.769531 155.066406 120.265625 166.492188 C 120.550781 173.09375 119.949219 179.390625 119.664062 181.875 C 129.582031 163.898438 141.03125 153.277344 153.695312 150.300781 C 163.550781 147.984375 171.546875 151.089844 175.125 152.917969 C 162.757812 142.167969 157.671875 133.59375 159.992188 127.410156 C 163.347656 118.480469 180.921875 117.242188 187.328125 117.089844 C 174.816406 114.625 167.578125 109.867188 165.808594 102.921875 C 163.410156 93.5 171.664062 81.707031 179.011719 73.46875 C 183.890625 68 189.027344 63.332031 192.277344 60.535156 C 175.355469 71.683594 163.253906 74.84375 156.269531 69.929688 C 149.761719 65.351562 149.042969 54.492188 149.589844 46.1875 C 149.859375 42.046875 150.460938 38.109375 151.035156 35.066406 C 146.742188 48.121094 140.996094 55.503906 133.925781 57.042969 C 132.996094 57.242188 132.074219 57.335938 131.164062 57.335938 C 123.15625 57.335938 116.09375 50.222656 114.191406 48.132812 C 116.273438 60.847656 114.386719 69.496094 108.582031 73.84375 C 105.324219 76.285156 98.992188 78.597656 87.320312 75.773438 C 82.785156 74.675781 78.808594 73.121094 76.574219 72.164062 C 88.082031 80.734375 93.527344 89.761719 92.765625 99.007812 C 91.472656 114.636719 72.570312 126.632812 65.5625 130.566406 C 71.09375 128.835938 75.050781 129.226562 77.347656 131.738281 C 81.191406 135.945312 80.390625 145.867188 74.964844 161.234375 C 71.941406 169.800781 68.25 177.753906 66.578125 181.222656 C 85.34375 157.4375 99.4375 145.429688 108.566406 145.429688 Z M 108.566406 145.429688 " fill-opacity="1" fill-rule="nonzero"/><g clip-path="url(#9e816f14f2)"><path fill="#cad2c5" d="M 77.863281 98.730469 C 77.863281 98.730469 63.71875 95.28125 61.019531 117.351562 C 61.019531 117.351562 53.3125 85.242188 41.496094 125.011719 C 41.496094 125.011719 44.21875 96.535156 33.261719 106.816406 C 33.261719 106.816406 50.347656 88.378906 28.9375 83.132812 C 28.9375 83.132812 49.382812 84.835938 39.746094 68.980469 C 39.746094 68.980469 53.457031 76.636719 51.183594 56.867188 C 51.183594 56.867188 54.394531 85.941406 70.949219 61.117188 C 70.949219 61.117188 54.964844 88.230469 77.171875 83.527344 C 77.171875 83.527344 55.964844 91.359375 77.863281 98.730469 Z M 77.863281 98.730469 " fill-opacity="1" fill-rule="nonzero"/></g><g clip-path="url(#dc0fab34d5)"><path fill="#cad2c5" d="M 181.78125 192.410156 C 181.78125 192.410156 175.691406 182.277344 192.152344 174.859375 C 192.152344 174.859375 165.398438 176.632812 193.382812 157.875 C 193.382812 157.875 171.960938 166.855469 177.285156 155.878906 C 177.285156 155.878906 167.113281 173.574219 157.878906 158.242188 C 157.878906 158.242188 164.132812 173.683594 149.515625 170.039062 C 149.515625 170.039062 158.757812 178.820312 142.882812 181.828125 C 142.882812 181.828125 166.199219 177.300781 150.945312 196.128906 C 150.945312 196.128906 168.113281 177.191406 169.824219 195.542969 C 169.824219 195.542969 170.78125 177.210938 181.78125 192.410156 Z M 181.78125 192.410156 " fill-opacity="1" fill-rule="nonzero"/></g><path fill="#0d1321" d="M 168.253906 57.078125 C 168.203125 57.078125 168.152344 57.0625 168.113281 57.023438 C 168.035156 56.957031 168.019531 56.84375 168.074219 56.753906 C 168.105469 56.699219 171.363281 51.332031 169.707031 49.585938 C 168.832031 48.65625 166.140625 48.441406 158.328125 52.675781 C 158.230469 52.730469 158.109375 52.699219 158.050781 52.609375 C 157.988281 52.519531 158.003906 52.394531 158.089844 52.324219 C 160.066406 50.691406 165.046875 46.011719 164.355469 43.992188 C 164.132812 43.34375 163.308594 42.996094 161.894531 42.949219 C 161.78125 42.945312 161.6875 42.851562 161.6875 42.738281 C 161.6875 42.621094 161.777344 42.527344 161.894531 42.523438 C 161.957031 42.519531 168.128906 42.246094 169.90625 38.941406 C 170.796875 37.285156 170.445312 35.125 168.863281 32.511719 C 168.804688 32.417969 168.828125 32.292969 168.921875 32.230469 C 169.011719 32.164062 169.136719 32.179688 169.207031 32.265625 C 169.242188 32.300781 172.4375 36.03125 175.066406 35.410156 C 176.429688 35.089844 177.429688 33.644531 178.046875 31.117188 C 178.070312 31.023438 178.15625 30.957031 178.253906 30.953125 C 178.347656 30.945312 178.433594 31.015625 178.460938 31.109375 C 178.46875 31.136719 179.289062 33.945312 181.265625 34.339844 C 182.800781 34.644531 184.648438 33.460938 186.757812 30.8125 C 186.765625 30.800781 186.773438 30.789062 186.78125 30.785156 C 186.851562 30.691406 186.988281 30.675781 187.078125 30.75 C 187.171875 30.824219 187.1875 30.957031 187.113281 31.050781 C 187.113281 31.054688 187.109375 31.054688 187.109375 31.058594 C 186.953125 31.253906 183.0625 36.226562 184.550781 38.675781 C 185.453125 40.160156 188.171875 40.460938 192.628906 39.570312 C 192.742188 39.546875 192.851562 39.617188 192.878906 39.730469 C 192.90625 39.84375 192.835938 39.957031 192.722656 39.984375 C 192.640625 40.007812 184.261719 42.210938 183.679688 45.773438 C 183.449219 47.183594 184.503906 48.664062 186.8125 50.164062 C 186.90625 50.226562 186.9375 50.351562 186.882812 50.449219 C 186.828125 50.546875 186.710938 50.585938 186.609375 50.539062 C 186.5625 50.519531 182.03125 48.457031 180.535156 50 C 179.65625 50.910156 180 53.023438 181.535156 56.113281 C 181.585938 56.214844 181.546875 56.339844 181.445312 56.394531 C 181.34375 56.453125 181.21875 56.417969 181.160156 56.320312 C 181.148438 56.300781 179.898438 54.304688 177.261719 53.828125 C 174.691406 53.363281 171.707031 54.441406 168.390625 57.035156 C 168.347656 57.066406 168.300781 57.078125 168.253906 57.078125 Z M 168.023438 48.597656 C 168.917969 48.597656 169.582031 48.828125 170.019531 49.289062 C 171.464844 50.8125 169.839844 54.398438 168.945312 56.082031 C 172.042969 53.855469 174.863281 52.953125 177.347656 53.410156 C 178.800781 53.671875 179.847656 54.351562 180.53125 54.964844 C 179.445312 52.382812 179.339844 50.617188 180.230469 49.703125 C 181.339844 48.558594 183.707031 49.058594 185.273438 49.570312 C 183.726562 48.28125 183.046875 46.984375 183.257812 45.703125 C 183.667969 43.191406 187.40625 41.378906 190.035156 40.402344 C 186.941406 40.710938 184.980469 40.207031 184.183594 38.898438 C 183.21875 37.308594 184.1875 34.902344 185.207031 33.121094 C 183.738281 34.449219 182.390625 35 181.179688 34.757812 C 179.574219 34.4375 178.675781 32.8125 178.285156 31.882812 C 177.613281 34.171875 176.566406 35.496094 175.164062 35.828125 C 173.257812 36.277344 171.183594 34.765625 169.957031 33.640625 C 170.976562 35.804688 171.089844 37.648438 170.28125 39.144531 C 168.972656 41.582031 165.585938 42.464844 163.542969 42.78125 C 164.183594 43 164.589844 43.359375 164.761719 43.855469 C 165.445312 45.855469 161.808594 49.550781 159.726562 51.457031 C 163.46875 49.542969 166.21875 48.597656 168.023438 48.597656 Z M 168.023438 48.597656 " fill-opacity="1" fill-rule="nonzero"/></svg>