<svg xmlns="http://www.w3.org/2000/svg" xmlns:xlink="http://www.w3.org/1999/xlink" width="200" zoomAndPan="magnify" viewBox="0 0 224.87999 149.999998" height="200" preserveAspectRatio="xMidYMid meet" version="1.0"><defs><clipPath id="42c8ce6f63"><path d="M 16.976562 59 L 27 59 L 27 69 L 16.976562 69 Z M 16.976562 59 " clip-rule="nonzero"/></clipPath><clipPath id="4aeb4baceb"><path d="M 25 9.371094 L 207.902344 9.371094 L 207.902344 140.550781 L 25 140.550781 Z M 25 9.371094 " clip-rule="nonzero"/></clipPath></defs><path fill="#cad2c5" d="M 27.875 84.851562 L 64.464844 84.851562 L 64.464844 83.785156 L 27.875 83.785156 L 27.875 84.851562 " fill-opacity="1" fill-rule="nonzero"/><g clip-path="url(#42c8ce6f63)"><path fill="#cad2c5" d="M 21.417969 67.238281 C 23.042969 67.238281 24.359375 65.925781 24.359375 64.304688 C 24.359375 62.683594 23.042969 61.367188 21.417969 61.367188 C 19.792969 61.367188 18.480469 62.683594 18.480469 64.304688 C 18.480469 65.925781 19.792969 67.238281 21.417969 67.238281 Z M 21.417969 59.648438 C 23.996094 59.648438 26.082031 61.730469 26.082031 64.304688 C 26.082031 66.875 23.996094 68.957031 21.417969 68.957031 C 18.84375 68.957031 16.753906 66.875 16.753906 64.304688 C 16.753906 61.730469 18.84375 59.648438 21.417969 59.648438 " fill-opacity="1" fill-rule="nonzero"/></g><path fill="#cad2c5" d="M 54.78125 98.71875 C 56.402344 98.71875 57.71875 97.402344 57.71875 95.78125 C 57.71875 94.160156 56.402344 92.847656 54.78125 92.847656 C 53.15625 92.847656 51.839844 94.160156 51.839844 95.78125 C 51.839844 97.402344 53.15625 98.71875 54.78125 98.71875 Z M 54.78125 91.125 C 57.355469 91.125 59.445312 93.210938 59.445312 95.78125 C 59.445312 98.355469 57.355469 100.4375 54.78125 100.4375 C 52.203125 100.4375 50.117188 98.355469 50.117188 95.78125 C 50.117188 93.210938 52.203125 91.125 54.78125 91.125 " fill-opacity="1" fill-rule="nonzero"/><path fill="#cad2c5" d="M 151.304688 87.175781 C 153.082031 87.175781 154.523438 88.613281 154.523438 90.386719 C 154.523438 92.160156 153.082031 93.597656 151.304688 93.597656 C 149.53125 93.597656 148.089844 92.160156 148.089844 90.386719 C 148.089844 88.613281 149.53125 87.175781 151.304688 87.175781 " fill-opacity="1" fill-rule="nonzero"/><path fill="#cad2c5" d="M 25.457031 81.109375 C 27.234375 81.109375 28.671875 82.546875 28.671875 84.320312 C 28.671875 86.089844 27.234375 87.53125 25.457031 87.53125 C 23.679688 87.53125 22.242188 86.089844 22.242188 84.320312 C 22.242188 82.546875 23.679688 81.109375 25.457031 81.109375 " fill-opacity="1" fill-rule="nonzero"/><path fill="#cad2c5" d="M 56.226562 50.328125 C 58.003906 50.328125 59.445312 51.765625 59.445312 53.539062 C 59.445312 55.3125 58.003906 56.75 56.226562 56.75 C 54.453125 56.75 53.011719 55.3125 53.011719 53.539062 C 53.011719 51.765625 54.453125 50.328125 56.226562 50.328125 " fill-opacity="1" fill-rule="nonzero"/><path fill="#cad2c5" d="M 74.710938 79.152344 C 75.832031 79.152344 76.742188 78.246094 76.742188 77.128906 C 76.742188 76.011719 75.832031 75.105469 74.710938 75.105469 C 73.59375 75.105469 72.6875 76.011719 72.6875 77.128906 C 72.6875 78.246094 73.59375 79.152344 74.710938 79.152344 Z M 74.710938 73.917969 C 76.488281 73.917969 77.929688 75.355469 77.929688 77.128906 C 77.929688 78.902344 76.488281 80.339844 74.710938 80.339844 C 72.9375 80.339844 71.496094 78.902344 71.496094 77.128906 C 71.496094 75.355469 72.9375 73.917969 74.710938 73.917969 " fill-opacity="1" fill-rule="nonzero"/><path fill="#cad2c5" d="M 145.628906 57.585938 C 146.746094 57.585938 147.65625 56.679688 147.65625 55.5625 C 147.65625 54.445312 146.746094 53.539062 145.628906 53.539062 C 144.507812 53.539062 143.601562 54.445312 143.601562 55.5625 C 143.601562 56.679688 144.507812 57.585938 145.628906 57.585938 Z M 145.628906 52.351562 C 147.402344 52.351562 148.84375 53.789062 148.84375 55.5625 C 148.84375 57.335938 147.402344 58.773438 145.628906 58.773438 C 143.851562 58.773438 142.410156 57.335938 142.410156 55.5625 C 142.410156 53.789062 143.851562 52.351562 145.628906 52.351562 " fill-opacity="1" fill-rule="nonzero"/><g clip-path="url(#4aeb4baceb)"><path fill="#cad2c5" d="M 138.433594 110.613281 L 180.15625 110.613281 L 207.898438 138.277344 L 207.898438 140.542969 L 179.492188 112.214844 L 137.769531 112.214844 L 122.214844 96.683594 L 58.476562 96.683594 L 58.476562 95.082031 L 122.878906 95.082031 Z M 147.976562 56.488281 L 147.976562 54.882812 L 187.210938 54.882812 L 207.898438 34.230469 L 207.898438 36.496094 L 187.875 56.488281 Z M 93.683594 63.574219 L 105.101562 74.976562 L 125.417969 74.976562 L 134.992188 65.421875 L 207.898438 65.421875 L 207.898438 67.023438 L 135.65625 67.023438 L 126.082031 76.582031 L 104.4375 76.582031 L 93.015625 65.179688 L 25.457031 65.179688 L 25.457031 63.574219 Z M 180.046875 38.78125 L 138.324219 38.78125 L 122.765625 54.308594 L 58.476562 54.308594 L 58.476562 53.242188 L 122.324219 53.242188 L 137.878906 37.710938 L 179.601562 37.710938 L 207.898438 9.367188 L 207.898438 10.878906 L 180.203125 38.625 Z M 136.222656 89.898438 L 136.066406 90.054688 L 86.648438 90.054688 L 76.355469 79.78125 L 77.113281 79.023438 L 87.09375 88.988281 L 135.621094 88.988281 L 147.597656 77.03125 L 147.753906 76.875 L 207.898438 76.875 L 207.898438 77.941406 L 148.199219 77.941406 Z M 154.148438 90.980469 L 154.148438 89.914062 L 192.753906 89.914062 L 207.898438 105.035156 L 207.898438 106.542969 L 192.3125 90.980469 L 154.148438 90.980469 " fill-opacity="1" fill-rule="nonzero"/></g></svg>