<svg xmlns="http://www.w3.org/2000/svg" xmlns:xlink="http://www.w3.org/1999/xlink" width="200" zoomAndPan="magnify" viewBox="0 0 224.87999 149.999998" height="200" preserveAspectRatio="xMidYMid meet" version="1.0"><defs><clipPath id="f8d67cd6b5"><path d="M 12.160156 23.105469 L 180 23.105469 L 180 66 L 12.160156 66 Z M 12.160156 23.105469 " clip-rule="nonzero"/></clipPath><clipPath id="083b145642"><path d="M 25 66 L 194 66 L 194 126.550781 L 25 126.550781 Z M 25 66 " clip-rule="nonzero"/></clipPath><clipPath id="5061e0ce16"><path d="M 110 58 L 213.054688 58 L 213.054688 81 L 110 81 Z M 110 58 " clip-rule="nonzero"/></clipPath></defs><g clip-path="url(#f8d67cd6b5)"><path fill="#cad2c5" d="M 14.84375 55.082031 C 13.710938 55.082031 12.789062 54.164062 12.789062 53.035156 C 12.789062 51.90625 13.710938 50.988281 14.84375 50.988281 C 15.980469 50.988281 16.902344 51.90625 16.902344 53.035156 C 16.902344 54.164062 15.980469 55.082031 14.84375 55.082031 Z M 17.457031 53.664062 L 66.957031 53.664062 L 78.5625 65.210938 L 93.214844 65.210938 L 108.351562 50.148438 L 153.527344 50.148438 L 176.003906 27.785156 C 176.90625 28.296875 178.078125 28.171875 178.847656 27.402344 C 179.773438 26.480469 179.773438 24.988281 178.847656 24.066406 C 177.921875 23.144531 176.421875 23.144531 175.496094 24.066406 C 174.722656 24.832031 174.597656 25.996094 175.109375 26.898438 L 153.003906 48.894531 L 107.832031 48.894531 L 92.691406 63.957031 L 79.085938 63.957031 L 67.476562 52.410156 L 17.457031 52.410156 C 17.167969 51.238281 16.109375 50.363281 14.84375 50.363281 C 13.363281 50.363281 12.160156 51.5625 12.160156 53.035156 C 12.160156 54.511719 13.363281 55.710938 14.84375 55.710938 C 16.109375 55.710938 17.167969 54.835938 17.457031 53.664062 " fill-opacity="1" fill-rule="nonzero"/></g><path fill="#cad2c5" d="M 189.273438 125.78125 L 189.265625 125.777344 L 189.273438 125.78125 " fill-opacity="1" fill-rule="nonzero"/><path fill="#cad2c5" d="M 188.988281 125.5 L 188.9375 125.449219 L 188.988281 125.5 " fill-opacity="1" fill-rule="nonzero"/><g clip-path="url(#083b145642)"><path fill="#cad2c5" d="M 189.433594 125.054688 C 188.632812 124.257812 188.632812 122.960938 189.433594 122.160156 C 190.234375 121.363281 191.539062 121.363281 192.339844 122.160156 C 193.144531 122.960938 193.144531 124.257812 192.339844 125.054688 C 191.539062 125.851562 190.234375 125.851562 189.433594 125.054688 Z M 189.488281 121.328125 L 170.828125 102.761719 L 127.386719 102.761719 L 103.304688 78.800781 L 70.28125 78.800781 L 59.402344 67.972656 L 29.683594 67.972656 C 29.40625 66.976562 28.488281 66.242188 27.398438 66.242188 C 26.089844 66.242188 25.027344 67.296875 25.027344 68.601562 C 25.027344 69.90625 26.089844 70.960938 27.398438 70.960938 C 28.488281 70.960938 29.40625 70.226562 29.683594 69.230469 L 58.882812 69.230469 L 69.761719 80.054688 L 102.785156 80.054688 L 126.863281 104.015625 L 170.304688 104.015625 L 188.597656 122.214844 C 187.964844 123.246094 188.09375 124.609375 188.988281 125.5 C 190.035156 126.542969 191.738281 126.542969 192.789062 125.5 C 193.835938 124.457031 193.835938 122.761719 192.789062 121.71875 C 191.894531 120.828125 190.523438 120.699219 189.488281 121.328125 " fill-opacity="1" fill-rule="nonzero"/></g><path fill="#cad2c5" d="M 188.9375 125.449219 C 188.894531 125.40625 188.855469 125.371094 188.824219 125.339844 C 188.859375 125.371094 188.898438 125.410156 188.9375 125.449219 " fill-opacity="1" fill-rule="nonzero"/><path fill="#cad2c5" d="M 189.265625 125.777344 C 189.226562 125.738281 189.140625 125.652344 188.988281 125.5 C 189.101562 125.613281 189.214844 125.726562 189.265625 125.777344 " fill-opacity="1" fill-rule="nonzero"/><path fill="#cad2c5" d="M 189.273438 125.78125 C 189.296875 125.808594 189.292969 125.804688 189.273438 125.78125 " fill-opacity="1" fill-rule="nonzero"/><path fill="#cad2c5" d="M 188.699219 125.210938 C 188.71875 125.234375 188.765625 125.28125 188.824219 125.339844 C 188.757812 125.269531 188.714844 125.230469 188.699219 125.210938 " fill-opacity="1" fill-rule="nonzero"/><path fill="#cad2c5" d="M 38.472656 77.949219 C 38.472656 79.078125 37.550781 79.996094 36.417969 79.996094 C 35.285156 79.996094 34.363281 79.078125 34.363281 77.949219 C 34.363281 76.820312 35.285156 75.902344 36.417969 75.902344 C 37.550781 75.902344 38.472656 76.820312 38.472656 77.949219 Z M 96.636719 90.585938 C 95.546875 90.585938 94.628906 91.320312 94.351562 92.316406 L 65.023438 92.316406 L 49.949219 77.320312 L 39.027344 77.320312 C 38.742188 76.148438 37.683594 75.273438 36.417969 75.273438 C 34.9375 75.273438 33.730469 76.472656 33.730469 77.949219 C 33.730469 79.421875 34.9375 80.621094 36.417969 80.621094 C 37.683594 80.621094 38.742188 79.746094 39.027344 78.578125 L 49.429688 78.578125 L 64.5 93.574219 L 94.351562 93.574219 C 94.628906 94.570312 95.546875 95.304688 96.636719 95.304688 C 97.945312 95.304688 99.007812 94.25 99.007812 92.945312 C 99.007812 91.640625 97.945312 90.585938 96.636719 90.585938 " fill-opacity="1" fill-rule="nonzero"/><g clip-path="url(#5061e0ce16)"><path fill="#cad2c5" d="M 210.367188 79.996094 C 209.234375 79.996094 208.3125 79.078125 208.3125 77.949219 C 208.3125 76.820312 209.234375 75.902344 210.367188 75.902344 C 211.5 75.902344 212.421875 76.820312 212.421875 77.949219 C 212.421875 79.078125 211.5 79.996094 210.367188 79.996094 Z M 213.054688 77.949219 C 213.054688 76.472656 211.847656 75.273438 210.367188 75.273438 C 209.101562 75.273438 208.042969 76.148438 207.757812 77.320312 L 184.925781 77.320312 L 167.960938 60.441406 L 115.480469 60.441406 C 115.207031 59.445312 114.289062 58.710938 113.199219 58.710938 C 111.886719 58.710938 110.828125 59.765625 110.828125 61.070312 C 110.828125 62.375 111.886719 63.429688 113.199219 63.429688 C 114.289062 63.429688 115.207031 62.695312 115.480469 61.699219 L 167.441406 61.699219 L 184.402344 78.578125 L 207.757812 78.578125 C 208.042969 79.746094 209.101562 80.621094 210.367188 80.621094 C 211.847656 80.621094 213.054688 79.421875 213.054688 77.949219 " fill-opacity="1" fill-rule="nonzero"/></g><path fill="#cad2c5" d="M 123.9375 72.367188 C 123.9375 73.496094 123.015625 74.414062 121.878906 74.414062 C 120.746094 74.414062 119.824219 73.496094 119.824219 72.367188 C 119.824219 71.238281 120.746094 70.320312 121.878906 70.320312 C 123.015625 70.320312 123.9375 71.238281 123.9375 72.367188 Z M 167.097656 85.242188 L 153.527344 71.738281 L 124.488281 71.738281 C 124.203125 70.566406 123.144531 69.695312 121.878906 69.695312 C 120.398438 69.695312 119.191406 70.894531 119.191406 72.367188 C 119.191406 73.84375 120.398438 75.042969 121.878906 75.042969 C 123.144531 75.042969 124.203125 74.167969 124.488281 72.996094 L 153.003906 72.996094 L 164.050781 83.988281 L 141.816406 83.988281 L 135.757812 90.015625 C 134.851562 89.503906 133.683594 89.628906 132.914062 90.398438 C 131.988281 91.320312 131.988281 92.8125 132.914062 93.734375 C 133.839844 94.65625 135.339844 94.65625 136.265625 93.734375 C 137.039062 92.96875 137.164062 91.804688 136.648438 90.902344 L 142.339844 85.242188 L 167.097656 85.242188 " fill-opacity="1" fill-rule="nonzero"/><path fill="#cad2c5" d="M 173.960938 49.664062 C 173.960938 50.792969 173.039062 51.710938 171.902344 51.710938 C 170.769531 51.710938 169.847656 50.792969 169.847656 49.664062 C 169.847656 48.535156 170.769531 47.621094 171.902344 47.621094 C 173.039062 47.621094 173.960938 48.535156 173.960938 49.664062 Z M 174.511719 49.039062 C 174.226562 47.867188 173.167969 46.992188 171.902344 46.992188 C 170.421875 46.992188 169.214844 48.191406 169.214844 49.664062 C 169.214844 51.140625 170.421875 52.339844 171.902344 52.339844 C 173.167969 52.339844 174.226562 51.464844 174.511719 50.292969 L 183.480469 50.292969 L 193.429688 40.394531 C 194.335938 40.90625 195.503906 40.777344 196.277344 40.011719 C 197.203125 39.089844 197.203125 37.59375 196.277344 36.671875 C 195.351562 35.75 193.847656 35.75 192.921875 36.671875 C 192.152344 37.441406 192.023438 38.605469 192.539062 39.503906 L 182.957031 49.039062 L 174.511719 49.039062 " fill-opacity="1" fill-rule="nonzero"/><path fill="#cad2c5" d="M 159.578125 93.734375 C 159.578125 94.863281 158.65625 95.78125 157.523438 95.78125 C 156.386719 95.78125 155.464844 94.863281 155.464844 93.734375 C 155.464844 92.605469 156.386719 91.6875 157.523438 91.6875 C 158.65625 91.6875 159.578125 92.605469 159.578125 93.734375 Z M 201.285156 100.21875 C 200.191406 100.21875 199.277344 100.953125 199 101.953125 L 185.933594 101.953125 L 177.046875 93.105469 L 160.132812 93.105469 C 159.847656 91.933594 158.785156 91.0625 157.523438 91.0625 C 156.039062 91.0625 154.835938 92.261719 154.835938 93.734375 C 154.835938 95.207031 156.039062 96.410156 157.523438 96.410156 C 158.785156 96.410156 159.847656 95.535156 160.132812 94.363281 L 176.523438 94.363281 L 185.414062 103.207031 L 199 103.207031 C 199.277344 104.203125 200.191406 104.9375 201.285156 104.9375 C 202.59375 104.9375 203.65625 103.882812 203.65625 102.578125 C 203.65625 101.277344 202.59375 100.21875 201.285156 100.21875 " fill-opacity="1" fill-rule="nonzero"/></svg>