<svg xmlns="http://www.w3.org/2000/svg" xmlns:xlink="http://www.w3.org/1999/xlink" width="400" zoomAndPan="magnify" viewBox="0 0 224.87999 225" height="400" preserveAspectRatio="xMidYMid meet" version="1.0"><defs><filter x="0%" y="0%" width="100%" height="100%" id="64139d3d7c"><feColorMatrix values="0 0 0 0 1 0 0 0 0 1 0 0 0 0 1 0 0 0 1 0" color-interpolation-filters="sRGB"/></filter><clipPath id="11a66a767d"><path d="M 27.09375 27.152344 L 198.003906 27.152344 L 198.003906 198.0625 L 27.09375 198.0625 Z M 27.09375 27.152344 " clip-rule="nonzero"/></clipPath><mask id="440d2a30a2"><g filter="url(#64139d3d7c)"><rect x="-22.487999" width="269.855988" fill="#000000" y="-22.5" height="270" fill-opacity="0.2471"/></g></mask><clipPath id="ad2b15168d"><path d="M 81 0.152344 L 89 0.152344 L 89 171.0625 L 81 171.0625 Z M 81 0.152344 " clip-rule="nonzero"/></clipPath><clipPath id="80d69b7dbd"><path d="M 66 0.152344 L 98 0.152344 L 98 171 L 66 171 Z M 66 0.152344 " clip-rule="nonzero"/></clipPath><clipPath id="032f40a7ba"><path d="M 0.09375 66 L 170 66 L 170 155 L 0.09375 155 Z M 0.09375 66 " clip-rule="nonzero"/></clipPath><clipPath id="9363c82a39"><path d="M 0.09375 78 L 171 78 L 171 154 L 0.09375 154 Z M 0.09375 78 " clip-rule="nonzero"/></clipPath><clipPath id="d5c6b5dc47"><path d="M 78 0.152344 L 98 0.152344 L 98 171 L 78 171 Z M 78 0.152344 " clip-rule="nonzero"/></clipPath><clipPath id="1207ab10a8"><path d="M 62 0.152344 L 109 0.152344 L 109 4 L 62 4 Z M 62 0.152344 " clip-rule="nonzero"/></clipPath><clipPath id="334acb63cc"><path d="M 0.09375 33 L 171.003906 33 L 171.003906 87 L 0.09375 87 Z M 0.09375 33 " clip-rule="nonzero"/></clipPath><clipPath id="1a3de41cce"><rect x="0" width="172" y="0" height="172"/></clipPath><clipPath id="daaaafc901"><path d="M 109 27.152344 L 117 27.152344 L 117 198.0625 L 109 198.0625 Z M 109 27.152344 " clip-rule="nonzero"/></clipPath><clipPath id="61ccb95f5f"><path d="M 100 27.152344 L 132 27.152344 L 132 198 L 100 198 Z M 100 27.152344 " clip-rule="nonzero"/></clipPath><clipPath id="91b3196e20"><path d="M 27.09375 44 L 198 44 L 198 120 L 27.09375 120 Z M 27.09375 44 " clip-rule="nonzero"/></clipPath><clipPath id="aed6ba3322"><path d="M 100 27.152344 L 120 27.152344 L 120 198 L 100 198 Z M 100 27.152344 " clip-rule="nonzero"/></clipPath><clipPath id="520d9d8d9f"><path d="M 27.09375 112 L 198.003906 112 L 198.003906 165 L 27.09375 165 Z M 27.09375 112 " clip-rule="nonzero"/></clipPath><clipPath id="c12ef8ca91"><path d="M 69 27.152344 L 156 27.152344 L 156 81 L 69 81 Z M 69 27.152344 " clip-rule="nonzero"/></clipPath></defs><g clip-path="url(#11a66a767d)"><g mask="url(#440d2a30a2)"><g transform="matrix(1, 0, 0, 1, 27, 27)"><g clip-path="url(#1a3de41cce)"><g clip-path="url(#ad2b15168d)"><path fill="#cad2c5" d="M 88.199219 171.0625 C 86.574219 171.0625 84.179688 132.863281 82.984375 85.695312 C 81.703125 38.523438 82.046875 0.238281 83.667969 0.152344 C 83.414062 0.152344 83.15625 0.152344 82.898438 0.152344 C 81.277344 0.238281 80.933594 38.523438 82.214844 85.695312 C 83.496094 132.863281 85.804688 171.0625 87.429688 171.0625 C 87.683594 171.0625 87.941406 171.0625 88.199219 171.0625 Z M 88.199219 171.0625 " fill-opacity="1" fill-rule="nonzero"/></g><g clip-path="url(#80d69b7dbd)"><path fill="#cad2c5" d="M 97.339844 170.207031 C 89.308594 171.320312 77.6875 134.316406 71.363281 87.488281 C 65.039062 40.832031 66.492188 1.949219 74.441406 0.835938 C 74.183594 0.835938 73.925781 0.921875 73.671875 0.921875 C 65.636719 2.035156 64.269531 40.832031 70.59375 87.574219 C 76.917969 134.316406 88.539062 171.320312 96.570312 170.292969 C 96.828125 170.292969 97.085938 170.292969 97.339844 170.207031 Z M 97.339844 170.207031 " fill-opacity="1" fill-rule="nonzero"/></g><path fill="#cad2c5" d="M 106.828125 168.414062 C 92.898438 171.917969 72.304688 137.734375 60.765625 91.933594 C 49.230469 46.214844 51.109375 6.222656 64.953125 2.632812 C 64.953125 2.632812 64.953125 2.632812 65.039062 2.632812 C 64.78125 2.71875 64.527344 2.804688 64.269531 2.804688 C 50.425781 6.390625 48.460938 46.300781 60.082031 92.101562 C 71.621094 137.820312 92.214844 172.003906 106.058594 168.585938 C 106.3125 168.5 106.570312 168.414062 106.828125 168.414062 Z M 106.828125 168.414062 " fill-opacity="1" fill-rule="nonzero"/><path fill="#cad2c5" d="M 116.824219 165.167969 C 98.109375 172.515625 69.054688 142.863281 51.964844 98.855469 C 34.875 54.84375 36.15625 13.230469 54.871094 5.878906 C 54.871094 5.878906 54.957031 5.878906 54.957031 5.792969 C 54.785156 5.878906 54.527344 5.964844 54.273438 6.050781 C 35.558594 13.398438 34.191406 55.015625 51.367188 99.023438 C 68.457031 142.863281 97.339844 172.601562 116.140625 165.421875 C 116.3125 165.335938 116.570312 165.253906 116.824219 165.167969 Z M 116.824219 165.167969 " fill-opacity="1" fill-rule="nonzero"/><path fill="#cad2c5" d="M 127.59375 160.039062 C 105.542969 172.429688 69.054688 149.1875 45.984375 107.996094 C 22.910156 66.808594 22.140625 23.3125 44.101562 10.921875 C 44.1875 10.921875 44.273438 10.835938 44.273438 10.835938 C 44.019531 11.007812 43.761719 11.09375 43.503906 11.261719 C 21.542969 23.652344 22.3125 67.066406 45.386719 108.253906 C 68.371094 149.273438 104.691406 172.601562 126.824219 160.464844 C 127.078125 160.296875 127.335938 160.125 127.59375 160.039062 Z M 127.59375 160.039062 " fill-opacity="1" fill-rule="nonzero"/><path fill="#cad2c5" d="M 139.042969 152.261719 C 115.886719 170.890625 73.242188 156.023438 43.847656 119.105469 C 14.449219 82.191406 9.324219 37.15625 32.566406 18.613281 C 32.652344 18.527344 32.738281 18.441406 32.824219 18.355469 C 32.566406 18.527344 32.308594 18.785156 32.054688 18.953125 C 8.894531 37.582031 13.9375 82.53125 43.335938 119.449219 C 72.644531 156.195312 115.03125 171.0625 138.273438 152.859375 C 138.53125 152.691406 138.785156 152.433594 139.042969 152.261719 Z M 139.042969 152.261719 " fill-opacity="1" fill-rule="nonzero"/><path fill="#cad2c5" d="M 150.835938 140.726562 C 129.386719 166.105469 82.898438 161.917969 46.921875 131.328125 C 10.945312 100.734375 -0.847656 55.441406 20.601562 30.0625 C 20.6875 29.890625 20.859375 29.808594 20.945312 29.636719 C 20.6875 29.890625 20.519531 30.148438 20.261719 30.40625 C -1.1875 55.871094 10.605469 101.160156 46.582031 131.753906 C 82.300781 162.175781 128.53125 166.535156 150.152344 141.582031 C 150.410156 141.238281 150.578125 140.984375 150.835938 140.726562 Z M 150.835938 140.726562 " fill-opacity="1" fill-rule="nonzero"/><path fill="#cad2c5" d="M 161.6875 124.40625 C 145.453125 156.195312 98.28125 164.570312 56.324219 143.035156 C 14.363281 121.5 -6.570312 78.257812 9.664062 46.386719 C 9.75 46.214844 9.835938 45.957031 9.921875 45.785156 C 9.75 46.128906 9.578125 46.46875 9.410156 46.8125 C -6.828125 78.601562 14.109375 121.925781 56.066406 143.460938 C 97.769531 164.824219 144.683594 156.792969 161.175781 125.429688 C 161.347656 125.089844 161.515625 124.746094 161.6875 124.40625 Z M 161.6875 124.40625 " fill-opacity="1" fill-rule="nonzero"/><g clip-path="url(#032f40a7ba)"><path fill="#cad2c5" d="M 169.207031 103.042969 C 161.601562 139.445312 118.019531 160.980469 71.875 151.152344 C 25.730469 141.410156 -5.546875 103.980469 2.058594 67.664062 C 2.058594 67.40625 2.058594 67.234375 2.144531 66.980469 C 2.058594 67.40625 1.972656 67.75 1.890625 68.175781 C -5.714844 104.492188 25.558594 141.921875 71.703125 151.664062 C 117.507812 161.40625 160.832031 140.214844 168.867188 104.324219 C 169.039062 103.894531 169.121094 103.46875 169.207031 103.042969 Z M 169.207031 103.042969 " fill-opacity="1" fill-rule="nonzero"/></g><g clip-path="url(#9363c82a39)"><path fill="#cad2c5" d="M 170.746094 78.859375 C 173.652344 116.117188 137.933594 149.273438 90.847656 152.859375 C 43.761719 156.449219 3.257812 129.191406 0.351562 91.847656 C 0.351562 91.589844 0.351562 91.335938 0.265625 91.078125 C 0.265625 91.503906 0.351562 91.933594 0.351562 92.273438 C 3.339844 129.617188 43.847656 156.964844 90.933594 153.375 C 137.589844 149.785156 173.226562 117.140625 170.832031 80.140625 C 170.832031 79.710938 170.746094 79.285156 170.746094 78.859375 Z M 170.746094 78.859375 " fill-opacity="1" fill-rule="nonzero"/></g><path fill="#cad2c5" d="M 165.621094 55.785156 C 178.351562 90.050781 152.800781 131.070312 108.535156 147.390625 C 64.269531 163.714844 18.039062 149.1875 5.308594 114.917969 C 5.222656 114.75 5.136719 114.492188 5.050781 114.320312 C 5.222656 114.664062 5.308594 115.003906 5.476562 115.433594 C 18.210938 149.699219 64.441406 164.226562 108.707031 147.90625 C 152.628906 131.667969 178.265625 91.164062 166.046875 56.980469 C 165.875 56.554688 165.789062 56.210938 165.621094 55.785156 Z M 165.621094 55.785156 " fill-opacity="1" fill-rule="nonzero"/><path fill="#cad2c5" d="M 155.878906 37.070312 C 175.53125 65.527344 159.894531 110.304688 120.925781 136.964844 C 81.960938 163.628906 34.53125 162.175781 14.878906 133.71875 C 14.792969 133.546875 14.707031 133.378906 14.621094 133.207031 C 14.792969 133.546875 14.964844 133.804688 15.21875 134.148438 C 34.875 162.601562 82.300781 164.054688 121.269531 137.394531 C 159.894531 110.902344 175.703125 66.550781 156.476562 38.011719 C 156.304688 37.667969 156.132812 37.414062 155.878906 37.070312 Z M 155.878906 37.070312 " fill-opacity="1" fill-rule="nonzero"/><path fill="#cad2c5" d="M 144.253906 23.484375 C 167.242188 45.1875 159.464844 90.480469 126.910156 124.660156 C 94.351562 158.84375 49.402344 169.011719 26.5 147.308594 C 26.328125 147.222656 26.242188 147.136719 26.15625 147.050781 C 26.414062 147.308594 26.671875 147.476562 26.839844 147.734375 C 49.828125 169.4375 94.777344 159.269531 127.335938 125.089844 C 159.636719 91.078125 167.585938 46.042969 144.9375 24.167969 C 144.683594 23.910156 144.425781 23.738281 144.253906 23.484375 Z M 144.253906 23.484375 " fill-opacity="1" fill-rule="nonzero"/><path fill="#cad2c5" d="M 132.464844 14.167969 C 155.535156 29.292969 153.144531 73.558594 127.078125 112.867188 C 101.015625 152.261719 61.195312 171.832031 38.121094 156.707031 C 38.035156 156.621094 37.949219 156.621094 37.863281 156.535156 C 38.121094 156.707031 38.378906 156.878906 38.632812 157.046875 C 61.707031 172.175781 101.527344 152.605469 127.59375 113.210938 C 153.484375 74.070312 156.046875 29.976562 133.230469 14.679688 C 132.976562 14.511719 132.71875 14.339844 132.464844 14.167969 Z M 132.464844 14.167969 " fill-opacity="1" fill-rule="nonzero"/><path fill="#cad2c5" d="M 121.355469 8.015625 C 142.035156 17.585938 142.632812 59.972656 122.722656 102.785156 C 102.808594 145.597656 69.824219 172.515625 49.144531 162.945312 C 49.058594 162.945312 49.058594 162.859375 48.972656 162.859375 C 49.230469 162.945312 49.488281 163.117188 49.742188 163.203125 C 70.421875 172.773438 103.410156 145.855469 123.320312 103.042969 C 143.230469 60.398438 142.632812 18.101562 122.125 8.359375 C 121.867188 8.273438 121.609375 8.101562 121.355469 8.015625 Z M 121.355469 8.015625 " fill-opacity="1" fill-rule="nonzero"/><path fill="#cad2c5" d="M 111.015625 4 C 127.507812 9.125 129.386719 49.804688 115.117188 94.835938 C 100.84375 139.871094 75.976562 172.089844 59.484375 166.960938 L 59.398438 166.960938 C 59.570312 167.046875 59.828125 167.132812 60.082031 167.21875 C 76.574219 172.34375 101.527344 140.128906 115.714844 95.09375 C 129.984375 50.144531 128.191406 9.554688 111.78125 4.257812 C 111.527344 4.171875 111.269531 4.085938 111.015625 4 Z M 111.015625 4 " fill-opacity="1" fill-rule="nonzero"/><path fill="#cad2c5" d="M 101.273438 1.605469 C 112.296875 3.65625 114.089844 42.96875 105.203125 89.28125 C 96.316406 135.597656 80.164062 171.492188 69.054688 169.4375 C 69.3125 169.523438 69.570312 169.523438 69.824219 169.609375 C 80.847656 171.660156 97.085938 135.769531 105.972656 89.453125 C 114.859375 43.136719 113.066406 3.914062 102.042969 1.777344 C 101.785156 1.691406 101.527344 1.691406 101.273438 1.605469 Z M 101.273438 1.605469 " fill-opacity="1" fill-rule="nonzero"/><g clip-path="url(#d5c6b5dc47)"><path fill="#cad2c5" d="M 92.042969 0.410156 C 96.914062 0.835938 97.769531 39.292969 94.007812 86.292969 C 90.25 133.378906 83.242188 171.148438 78.371094 170.804688 C 78.625 170.804688 78.882812 170.804688 79.140625 170.890625 C 83.925781 171.234375 90.933594 133.378906 94.777344 86.378906 C 98.539062 39.292969 97.683594 0.921875 92.8125 0.496094 C 92.46875 0.410156 92.214844 0.410156 92.042969 0.410156 Z M 92.042969 0.410156 " fill-opacity="1" fill-rule="nonzero"/></g><g clip-path="url(#1207ab10a8)"><path fill="#cad2c5" d="M 108.878906 3.402344 C 94.09375 -0.785156 77.003906 -0.785156 62.21875 3.402344 C 62.988281 3.144531 63.757812 2.972656 64.441406 2.804688 C 77.941406 -0.613281 93.070312 -0.613281 106.570312 2.804688 C 107.339844 2.972656 108.109375 3.144531 108.878906 3.402344 Z M 108.878906 3.402344 " fill-opacity="1" fill-rule="nonzero"/></g><path fill="#cad2c5" d="M 136.136719 16.730469 C 112.980469 -0.273438 71.535156 -2.664062 43.589844 11.433594 C 40.429688 13.058594 37.523438 14.765625 34.960938 16.730469 C 35.300781 16.476562 35.644531 16.21875 35.984375 16.046875 C 59.398438 -0.699219 100.503906 -2.664062 127.933594 11.605469 C 130.496094 12.972656 132.890625 14.425781 135.113281 16.046875 C 135.453125 16.21875 135.796875 16.476562 136.136719 16.730469 Z M 136.136719 16.730469 " fill-opacity="1" fill-rule="nonzero"/><path fill="#cad2c5" d="M 152.203125 32.199219 C 134.257812 9.8125 89.820312 0.496094 52.992188 11.433594 C 38.121094 15.792969 26.15625 23.140625 18.894531 32.199219 C 19.152344 31.941406 19.320312 31.6875 19.578125 31.34375 C 37.78125 9.125 82.128906 0.152344 118.621094 11.261719 C 132.890625 15.621094 144.425781 22.628906 151.605469 31.34375 C 151.777344 31.601562 152.03125 31.859375 152.203125 32.199219 Z M 152.203125 32.199219 " fill-opacity="1" fill-rule="nonzero"/><path fill="#cad2c5" d="M 162.886719 49.203125 C 150.664062 23.226562 106.144531 8.1875 63.414062 15.621094 C 36.753906 20.234375 15.902344 32.96875 8.296875 49.203125 C 8.382812 48.949219 8.554688 48.605469 8.640625 48.351562 C 21.203125 22.457031 65.808594 7.675781 108.28125 15.363281 C 134.34375 19.980469 154.765625 32.457031 162.457031 48.351562 C 162.542969 48.605469 162.714844 48.949219 162.886719 49.203125 Z M 162.886719 49.203125 " fill-opacity="1" fill-rule="nonzero"/><path fill="#cad2c5" d="M 169.039062 67.40625 C 162.886719 39.292969 120.585938 19.550781 74.441406 23.3125 C 36.753906 26.390625 7.101562 44.417969 2.058594 67.40625 C 2.144531 67.066406 2.230469 66.722656 2.230469 66.46875 C 8.726562 38.4375 51.195312 18.953125 97.253906 22.886719 C 134.429688 26.046875 163.652344 43.820312 168.867188 66.46875 C 168.867188 66.722656 168.953125 67.066406 169.039062 67.40625 Z M 169.039062 67.40625 " fill-opacity="1" fill-rule="nonzero"/><g clip-path="url(#334acb63cc)"><path fill="#cad2c5" d="M 171.003906 86.035156 C 171.175781 57.324219 132.976562 33.910156 85.804688 33.824219 C 38.632812 33.824219 0.265625 56.980469 0.09375 85.78125 C 0.09375 85.863281 0.09375 86.035156 0.09375 86.121094 C 0.09375 85.78125 0.09375 85.523438 0.09375 85.179688 C 0.265625 56.382812 38.632812 33.226562 85.804688 33.308594 C 132.804688 33.394531 170.832031 56.554688 171.003906 85.097656 C 171.003906 85.4375 171.003906 85.78125 171.003906 86.035156 Z M 171.003906 86.035156 " fill-opacity="1" fill-rule="nonzero"/></g><path fill="#cad2c5" d="M 168.867188 104.75 C 175.277344 76.722656 143.230469 50.914062 97.253906 46.984375 C 51.28125 43.050781 8.726562 62.535156 2.316406 90.566406 C 1.207031 95.265625 1.207031 100.050781 2.316406 104.75 C 2.230469 104.410156 2.144531 104.152344 2.144531 103.808594 C -4.09375 75.78125 28.378906 49.972656 74.441406 46.300781 C 120.585938 42.539062 162.886719 62.28125 169.039062 90.394531 C 169.976562 94.921875 169.976562 99.453125 169.039062 103.894531 C 168.953125 104.152344 168.867188 104.492188 168.867188 104.75 Z M 168.867188 104.75 " fill-opacity="1" fill-rule="nonzero"/><path fill="#cad2c5" d="M 162.457031 122.867188 C 175.019531 96.972656 150.75 69.886719 108.28125 62.28125 C 65.808594 54.675781 21.203125 69.371094 8.640625 95.265625 C 4.28125 104.324219 4.28125 113.894531 8.640625 122.867188 C 8.46875 122.609375 8.382812 122.269531 8.210938 122.011719 C -4.007812 96.035156 20.6875 68.945312 63.332031 61.425781 C 106.058594 53.992188 150.664062 69.03125 162.886719 95.007812 C 167.070312 103.808594 167.070312 113.210938 162.886719 122.011719 C 162.714844 122.269531 162.542969 122.609375 162.457031 122.867188 Z M 162.457031 122.867188 " fill-opacity="1" fill-rule="nonzero"/><path fill="#cad2c5" d="M 151.605469 139.871094 C 169.804688 117.652344 155.109375 90.652344 118.621094 79.542969 C 82.128906 68.433594 37.78125 77.40625 19.578125 99.625 C 9.152344 112.269531 9.152344 127.226562 19.578125 139.871094 C 19.320312 139.617188 19.152344 139.359375 18.894531 139.019531 C 0.949219 116.628906 16.246094 89.539062 52.992188 78.601562 C 89.820312 67.75 134.257812 77.0625 152.203125 99.453125 C 162.199219 111.929688 162.199219 126.542969 152.203125 139.101562 C 152.03125 139.359375 151.777344 139.617188 151.605469 139.871094 Z M 151.605469 139.871094 " fill-opacity="1" fill-rule="nonzero"/><path fill="#cad2c5" d="M 135.113281 155.167969 C 158.527344 138.503906 155.28125 113.464844 127.933594 99.195312 C 100.589844 84.925781 59.398438 86.890625 35.984375 103.554688 C 15.132812 118.421875 15.132812 140.300781 35.984375 155.167969 C 35.644531 154.910156 35.300781 154.65625 34.960938 154.484375 C 11.800781 137.480469 15.648438 112.269531 43.589844 98.171875 C 71.535156 84.070312 112.980469 86.464844 136.136719 103.46875 C 156.304688 118.253906 156.304688 139.703125 136.136719 154.484375 C 135.796875 154.742188 135.453125 154.996094 135.113281 155.167969 Z M 135.113281 155.167969 " fill-opacity="1" fill-rule="nonzero"/><path fill="#cad2c5" d="M 106.65625 168.414062 C 134.429688 161.320312 147.589844 141.835938 135.964844 124.917969 C 124.34375 107.996094 92.300781 99.964844 64.441406 107.058594 C 36.667969 114.148438 23.507812 133.632812 35.128906 150.554688 C 40.683594 158.671875 51.195312 165.082031 64.441406 168.414062 C 63.671875 168.242188 62.902344 167.988281 62.21875 167.816406 C 34.617188 159.953125 22.652344 139.957031 35.472656 123.125 C 48.375 106.289062 81.191406 99.023438 108.878906 106.886719 C 136.480469 114.75 148.441406 134.746094 135.625 151.578125 C 130.15625 158.757812 120.671875 164.484375 108.878906 167.816406 C 108.109375 168.070312 107.339844 168.242188 106.65625 168.414062 Z M 106.65625 168.414062 " fill-opacity="1" fill-rule="nonzero"/><path fill="#cad2c5" d="M 127.933594 144.488281 C 127.933594 158.757812 108.964844 170.292969 85.546875 170.292969 C 62.132812 170.292969 43.164062 158.757812 43.164062 144.488281 C 43.164062 130.214844 62.132812 118.679688 85.546875 118.679688 C 108.964844 118.679688 127.933594 130.214844 127.933594 144.488281 Z M 128.617188 144.144531 C 128.617188 129.703125 109.390625 117.910156 85.546875 117.910156 C 61.792969 117.910156 42.480469 129.617188 42.480469 144.144531 C 42.480469 158.585938 61.707031 170.378906 85.546875 170.378906 C 109.304688 170.378906 128.617188 158.671875 128.617188 144.144531 Z M 128.617188 144.144531 " fill-opacity="1" fill-rule="nonzero"/><path fill="#cad2c5" d="M 114.433594 149.441406 C 114.433594 159.183594 101.527344 167.046875 85.546875 167.046875 C 69.570312 167.046875 56.664062 159.097656 56.664062 149.441406 C 56.664062 139.703125 69.570312 131.839844 85.546875 131.839844 C 101.527344 131.839844 114.433594 139.703125 114.433594 149.441406 Z M 115.117188 149.1875 C 115.117188 139.273438 101.871094 131.15625 85.546875 131.15625 C 69.226562 131.15625 55.980469 139.1875 55.980469 149.1875 C 55.980469 159.183594 69.226562 167.21875 85.546875 167.21875 C 101.871094 167.21875 115.117188 159.183594 115.117188 149.1875 Z M 115.117188 149.1875 " fill-opacity="1" fill-rule="nonzero"/><path fill="#cad2c5" d="M 99.992188 152.433594 C 99.992188 157.304688 93.496094 161.234375 85.546875 161.234375 C 77.515625 161.234375 71.105469 157.304688 71.105469 152.433594 C 71.105469 147.5625 77.515625 143.632812 85.546875 143.632812 C 93.582031 143.632812 99.992188 147.5625 99.992188 152.433594 Z M 100.757812 152.347656 C 100.757812 147.222656 93.921875 143.121094 85.546875 143.121094 C 77.175781 143.121094 70.335938 147.222656 70.335938 152.347656 C 70.335938 157.476562 77.175781 161.578125 85.546875 161.578125 C 93.921875 161.578125 100.757812 157.476562 100.757812 152.347656 Z M 100.757812 152.347656 " fill-opacity="1" fill-rule="nonzero"/></g></g></g></g><g clip-path="url(#daaaafc901)"><path fill="#cad2c5" d="M 109.898438 27.152344 C 111.523438 27.152344 113.914062 65.351562 115.113281 112.523438 C 116.394531 159.695312 116.050781 197.976562 114.429688 198.0625 C 114.683594 198.0625 114.941406 198.0625 115.199219 198.0625 C 116.820312 197.976562 117.164062 159.695312 115.882812 112.523438 C 114.597656 65.351562 112.292969 27.152344 110.667969 27.152344 C 110.414062 27.152344 110.15625 27.152344 109.898438 27.152344 Z M 109.898438 27.152344 " fill-opacity="1" fill-rule="nonzero"/></g><g clip-path="url(#61ccb95f5f)"><path fill="#cad2c5" d="M 100.757812 28.007812 C 108.789062 26.898438 120.410156 63.898438 126.734375 110.730469 C 133.058594 157.558594 131.605469 196.269531 123.65625 197.378906 C 123.914062 197.378906 124.171875 197.292969 124.425781 197.292969 C 132.460938 196.183594 133.828125 157.386719 127.503906 110.644531 C 121.179688 63.898438 109.558594 26.898438 101.523438 27.921875 C 101.269531 27.921875 101.011719 27.921875 100.757812 28.007812 Z M 100.757812 28.007812 " fill-opacity="1" fill-rule="nonzero"/></g><path fill="#cad2c5" d="M 91.269531 29.804688 C 105.199219 26.300781 125.792969 60.480469 137.332031 106.285156 C 148.867188 152.003906 146.988281 191.996094 133.144531 195.585938 C 133.144531 195.585938 133.144531 195.585938 133.058594 195.585938 C 133.3125 195.5 133.570312 195.414062 133.828125 195.414062 C 147.671875 191.824219 149.636719 151.917969 138.015625 106.113281 C 126.476562 60.394531 105.882812 26.214844 92.039062 29.632812 C 91.78125 29.71875 91.527344 29.804688 91.269531 29.804688 Z M 91.269531 29.804688 " fill-opacity="1" fill-rule="nonzero"/><path fill="#cad2c5" d="M 81.273438 33.050781 C 99.988281 25.703125 129.042969 55.355469 146.132812 99.363281 C 163.222656 143.371094 161.941406 184.988281 143.226562 192.335938 C 143.226562 192.335938 143.140625 192.335938 143.140625 192.421875 C 143.3125 192.335938 143.570312 192.253906 143.824219 192.167969 C 162.539062 184.816406 163.90625 143.203125 146.730469 99.191406 C 129.640625 55.355469 100.757812 25.617188 81.957031 32.792969 C 81.785156 32.878906 81.527344 32.964844 81.273438 33.050781 Z M 81.273438 33.050781 " fill-opacity="1" fill-rule="nonzero"/><path fill="#cad2c5" d="M 70.503906 38.179688 C 92.550781 25.785156 129.042969 49.03125 152.113281 90.21875 C 175.1875 131.410156 175.957031 174.90625 153.992188 187.296875 C 153.910156 187.296875 153.824219 187.382812 153.824219 187.382812 C 154.078125 187.210938 154.335938 187.125 154.59375 186.953125 C 176.554688 174.5625 175.785156 131.152344 152.710938 89.964844 C 129.726562 48.945312 93.40625 25.617188 71.273438 37.75 C 71.019531 37.921875 70.761719 38.09375 70.503906 38.179688 Z M 70.503906 38.179688 " fill-opacity="1" fill-rule="nonzero"/><path fill="#cad2c5" d="M 59.054688 45.953125 C 82.210938 27.324219 124.855469 42.195312 154.25 79.109375 C 183.648438 116.027344 188.773438 161.0625 165.53125 179.605469 C 165.445312 179.691406 165.359375 179.777344 165.273438 179.859375 C 165.53125 179.691406 165.785156 179.433594 166.042969 179.261719 C 189.199219 160.632812 184.160156 115.683594 154.761719 78.769531 C 125.453125 42.023438 83.066406 27.152344 59.824219 45.355469 C 59.566406 45.527344 59.308594 45.785156 59.054688 45.953125 Z M 59.054688 45.953125 " fill-opacity="1" fill-rule="nonzero"/><path fill="#cad2c5" d="M 47.261719 57.492188 C 68.710938 32.109375 115.199219 36.296875 151.175781 66.890625 C 187.148438 97.484375 198.941406 142.773438 177.492188 168.152344 C 177.410156 168.324219 177.238281 168.410156 177.152344 168.582031 C 177.410156 168.324219 177.578125 168.070312 177.835938 167.8125 C 199.285156 142.347656 187.492188 97.054688 151.515625 66.464844 C 115.796875 36.042969 69.566406 31.683594 47.945312 56.636719 C 47.6875 56.976562 47.519531 57.234375 47.261719 57.492188 Z M 47.261719 57.492188 " fill-opacity="1" fill-rule="nonzero"/><path fill="#cad2c5" d="M 36.410156 73.8125 C 52.644531 42.023438 99.816406 33.648438 141.773438 55.183594 C 183.730469 76.71875 204.667969 119.957031 188.433594 151.832031 C 188.347656 152.003906 188.261719 152.257812 188.175781 152.429688 C 188.347656 152.089844 188.515625 151.746094 188.6875 151.40625 C 204.925781 119.617188 183.988281 76.289062 142.03125 54.757812 C 100.328125 33.390625 53.414062 41.425781 36.921875 72.785156 C 36.75 73.128906 36.578125 73.46875 36.410156 73.8125 Z M 36.410156 73.8125 " fill-opacity="1" fill-rule="nonzero"/><path fill="#cad2c5" d="M 28.890625 95.175781 C 36.496094 58.773438 80.074219 37.238281 126.222656 47.066406 C 172.367188 56.808594 203.644531 94.234375 196.039062 130.554688 C 196.039062 130.808594 196.039062 130.980469 195.953125 131.238281 C 196.039062 130.808594 196.121094 130.46875 196.207031 130.042969 C 203.8125 93.722656 172.539062 56.292969 126.390625 46.550781 C 80.589844 36.808594 37.261719 58.003906 29.230469 93.894531 C 29.058594 94.320312 28.972656 94.75 28.890625 95.175781 Z M 28.890625 95.175781 " fill-opacity="1" fill-rule="nonzero"/><g clip-path="url(#91b3196e20)"><path fill="#cad2c5" d="M 27.351562 119.359375 C 24.445312 82.101562 60.164062 48.945312 107.25 45.355469 C 154.335938 41.765625 194.839844 69.027344 197.746094 106.371094 C 197.746094 106.625 197.746094 106.882812 197.832031 107.140625 C 197.832031 106.710938 197.746094 106.285156 197.746094 105.941406 C 194.753906 68.597656 154.25 41.253906 107.164062 44.84375 C 60.507812 48.433594 24.871094 81.074219 27.265625 118.078125 C 27.265625 118.503906 27.351562 118.933594 27.351562 119.359375 Z M 27.351562 119.359375 " fill-opacity="1" fill-rule="nonzero"/></g><path fill="#cad2c5" d="M 32.476562 142.433594 C 19.746094 108.164062 45.296875 67.148438 89.5625 50.824219 C 133.828125 34.503906 180.058594 49.03125 192.789062 83.296875 C 192.875 83.46875 192.960938 83.726562 193.046875 83.894531 C 192.875 83.554688 192.789062 83.210938 192.621094 82.785156 C 179.886719 48.519531 133.65625 33.992188 89.390625 50.3125 C 45.46875 66.546875 19.832031 107.054688 32.050781 141.234375 C 32.222656 141.664062 32.308594 142.003906 32.476562 142.433594 Z M 32.476562 142.433594 " fill-opacity="1" fill-rule="nonzero"/><path fill="#cad2c5" d="M 42.21875 161.148438 C 22.566406 132.691406 38.203125 87.996094 77.171875 61.25 C 116.136719 34.589844 163.566406 36.042969 183.21875 64.496094 C 183.304688 64.667969 183.390625 64.839844 183.476562 65.011719 C 183.304688 64.667969 183.132812 64.414062 182.878906 64.070312 C 163.222656 35.613281 115.796875 34.160156 76.828125 60.824219 C 38.203125 87.3125 22.394531 131.664062 41.621094 160.207031 C 41.792969 160.546875 41.964844 160.804688 42.21875 161.148438 Z M 42.21875 161.148438 " fill-opacity="1" fill-rule="nonzero"/><path fill="#cad2c5" d="M 53.839844 174.734375 C 30.855469 153.027344 38.628906 107.738281 71.1875 73.554688 C 103.746094 39.375 148.695312 29.207031 171.597656 50.910156 C 171.769531 50.996094 171.855469 51.082031 171.9375 51.167969 C 171.683594 50.910156 171.425781 50.738281 171.253906 50.484375 C 148.269531 28.777344 103.320312 38.945312 70.761719 73.128906 C 38.460938 107.140625 30.511719 152.175781 53.15625 174.050781 C 53.414062 174.308594 53.671875 174.476562 53.839844 174.734375 Z M 53.839844 174.734375 " fill-opacity="1" fill-rule="nonzero"/><path fill="#cad2c5" d="M 65.632812 184.046875 C 42.5625 168.921875 44.953125 124.65625 71.019531 85.347656 C 97.082031 45.953125 136.902344 26.386719 159.976562 41.511719 C 160.0625 41.597656 160.148438 41.597656 160.230469 41.679688 C 159.976562 41.511719 159.71875 41.339844 159.464844 41.167969 C 136.390625 26.042969 96.570312 45.613281 70.503906 85.007812 C 44.613281 124.144531 42.046875 168.238281 64.863281 183.535156 C 65.121094 183.707031 65.378906 183.878906 65.632812 184.046875 Z M 65.632812 184.046875 " fill-opacity="1" fill-rule="nonzero"/><path fill="#cad2c5" d="M 76.742188 190.203125 C 56.0625 180.628906 55.464844 138.246094 75.375 95.433594 C 95.285156 52.621094 128.273438 25.703125 148.953125 35.273438 C 149.039062 35.273438 149.039062 35.359375 149.125 35.359375 C 148.867188 35.273438 148.609375 35.101562 148.355469 35.015625 C 127.675781 25.445312 94.6875 52.363281 74.777344 95.175781 C 54.867188 137.816406 55.464844 180.117188 75.972656 189.859375 C 76.230469 189.945312 76.488281 190.117188 76.742188 190.203125 Z M 76.742188 190.203125 " fill-opacity="1" fill-rule="nonzero"/><path fill="#cad2c5" d="M 87.082031 194.21875 C 70.589844 189.089844 68.710938 148.414062 82.980469 103.378906 C 97.253906 58.34375 122.121094 26.128906 138.613281 31.257812 L 138.699219 31.257812 C 138.527344 31.171875 138.269531 31.085938 138.015625 31 C 121.519531 25.871094 96.570312 58.089844 82.382812 103.125 C 68.113281 148.070312 69.90625 188.664062 86.3125 193.960938 C 86.570312 194.046875 86.828125 194.132812 87.082031 194.21875 Z M 87.082031 194.21875 " fill-opacity="1" fill-rule="nonzero"/><path fill="#cad2c5" d="M 96.824219 196.609375 C 85.800781 194.558594 84.007812 155.25 92.894531 108.933594 C 101.78125 62.617188 117.933594 26.726562 129.042969 28.777344 C 128.785156 28.691406 128.527344 28.691406 128.273438 28.605469 C 117.25 26.554688 101.011719 62.445312 92.125 108.761719 C 83.238281 155.078125 85.03125 194.304688 96.054688 196.4375 C 96.3125 196.523438 96.570312 196.523438 96.824219 196.609375 Z M 96.824219 196.609375 " fill-opacity="1" fill-rule="nonzero"/><g clip-path="url(#aed6ba3322)"><path fill="#cad2c5" d="M 106.054688 197.804688 C 101.183594 197.378906 100.328125 158.925781 104.089844 111.925781 C 107.847656 64.839844 114.855469 27.070312 119.726562 27.410156 C 119.46875 27.410156 119.214844 27.410156 118.957031 27.324219 C 114.171875 26.984375 107.164062 64.839844 103.320312 111.839844 C 99.558594 158.925781 100.414062 197.292969 105.285156 197.722656 C 105.625 197.804688 105.882812 197.804688 106.054688 197.804688 Z M 106.054688 197.804688 " fill-opacity="1" fill-rule="nonzero"/></g><path fill="#cad2c5" d="M 89.21875 194.816406 C 104.003906 199.003906 121.09375 199.003906 135.878906 194.816406 C 135.109375 195.070312 134.339844 195.242188 133.65625 195.414062 C 120.152344 198.832031 105.027344 198.832031 91.527344 195.414062 C 90.757812 195.242188 89.988281 195.070312 89.21875 194.816406 Z M 89.21875 194.816406 " fill-opacity="1" fill-rule="nonzero"/><path fill="#cad2c5" d="M 61.960938 181.484375 C 85.117188 198.492188 126.5625 200.882812 154.507812 186.78125 C 157.667969 185.160156 160.574219 183.449219 163.136719 181.484375 C 162.796875 181.742188 162.453125 181.996094 162.113281 182.167969 C 138.699219 198.917969 97.59375 200.882812 70.164062 186.613281 C 67.597656 185.246094 65.207031 183.792969 62.984375 182.167969 C 62.644531 181.996094 62.300781 181.742188 61.960938 181.484375 Z M 61.960938 181.484375 " fill-opacity="1" fill-rule="nonzero"/><path fill="#cad2c5" d="M 45.894531 166.019531 C 63.839844 188.40625 108.277344 197.722656 145.105469 186.78125 C 159.976562 182.425781 171.9375 175.074219 179.203125 166.019531 C 178.945312 166.273438 178.777344 166.53125 178.519531 166.871094 C 160.316406 189.089844 115.964844 198.0625 79.476562 186.953125 C 65.207031 182.597656 53.671875 175.589844 46.492188 166.871094 C 46.320312 166.617188 46.066406 166.359375 45.894531 166.019531 Z M 45.894531 166.019531 " fill-opacity="1" fill-rule="nonzero"/><path fill="#cad2c5" d="M 35.210938 149.011719 C 47.433594 174.992188 91.953125 190.03125 134.679688 182.597656 C 161.34375 177.980469 182.195312 165.25 189.800781 149.011719 C 189.714844 149.269531 189.542969 149.609375 189.457031 149.867188 C 176.894531 175.757812 132.289062 190.542969 89.816406 182.851562 C 63.753906 178.238281 43.332031 165.761719 35.640625 149.867188 C 35.554688 149.609375 35.382812 149.269531 35.210938 149.011719 Z M 35.210938 149.011719 " fill-opacity="1" fill-rule="nonzero"/><path fill="#cad2c5" d="M 29.058594 130.808594 C 35.210938 158.925781 77.511719 178.664062 123.65625 174.90625 C 161.34375 171.828125 190.996094 153.796875 196.039062 130.808594 C 195.953125 131.152344 195.867188 131.492188 195.867188 131.75 C 189.371094 159.78125 146.902344 179.261719 100.839844 175.332031 C 63.667969 172.171875 34.441406 154.394531 29.230469 131.75 C 29.230469 131.492188 29.144531 131.152344 29.058594 130.808594 Z M 29.058594 130.808594 " fill-opacity="1" fill-rule="nonzero"/><g clip-path="url(#520d9d8d9f)"><path fill="#cad2c5" d="M 27.09375 112.097656 C 26.921875 140.808594 65.121094 164.222656 112.292969 164.308594 C 159.464844 164.394531 197.832031 141.234375 198.003906 112.4375 C 198.003906 112.351562 198.003906 112.179688 198.003906 112.097656 C 198.003906 112.4375 198.003906 112.695312 198.003906 113.035156 C 197.832031 141.835938 159.464844 164.992188 112.292969 164.90625 C 65.292969 164.820312 27.265625 141.664062 27.09375 113.035156 C 27.09375 112.78125 27.09375 112.4375 27.09375 112.097656 Z M 27.09375 112.097656 " fill-opacity="1" fill-rule="nonzero"/></g><path fill="#cad2c5" d="M 29.230469 93.46875 C 22.820312 121.496094 54.867188 147.304688 100.839844 151.234375 C 146.816406 155.164062 189.371094 135.679688 195.78125 107.652344 C 196.890625 102.953125 196.890625 98.167969 195.78125 93.46875 C 195.867188 93.808594 195.953125 94.066406 195.953125 94.40625 C 202.191406 122.4375 169.804688 148.242188 123.65625 151.917969 C 77.511719 155.675781 35.210938 135.9375 29.058594 107.824219 C 28.121094 103.292969 28.121094 98.765625 29.058594 94.320312 C 29.144531 94.066406 29.230469 93.722656 29.230469 93.46875 Z M 29.230469 93.46875 " fill-opacity="1" fill-rule="nonzero"/><path fill="#cad2c5" d="M 35.640625 75.351562 C 23.078125 101.242188 47.347656 128.332031 89.816406 135.9375 C 132.289062 143.542969 176.894531 128.84375 189.457031 102.953125 C 193.816406 93.894531 193.816406 84.324219 189.457031 75.351562 C 189.628906 75.605469 189.714844 75.949219 189.886719 76.203125 C 202.105469 102.183594 177.410156 129.273438 134.765625 136.792969 C 92.039062 144.226562 47.433594 129.1875 35.210938 103.207031 C 31.023438 94.40625 31.023438 85.007812 35.210938 76.203125 C 35.382812 75.949219 35.554688 75.605469 35.640625 75.351562 Z M 35.640625 75.351562 " fill-opacity="1" fill-rule="nonzero"/><path fill="#cad2c5" d="M 46.492188 58.34375 C 28.289062 80.5625 42.988281 107.566406 79.476562 118.675781 C 115.964844 129.785156 160.316406 120.8125 178.519531 98.59375 C 188.945312 85.945312 188.945312 70.992188 178.519531 58.34375 C 178.777344 58.601562 178.945312 58.859375 179.203125 59.199219 C 197.148438 81.589844 181.851562 108.675781 145.105469 119.617188 C 108.277344 130.46875 63.839844 121.152344 45.894531 98.765625 C 35.894531 86.289062 35.894531 71.675781 45.894531 59.113281 C 46.066406 58.859375 46.320312 58.601562 46.492188 58.34375 Z M 46.492188 58.34375 " fill-opacity="1" fill-rule="nonzero"/><path fill="#cad2c5" d="M 62.984375 43.046875 C 39.570312 59.710938 42.816406 84.75 70.164062 99.019531 C 97.507812 113.292969 138.699219 111.328125 162.113281 94.664062 C 182.964844 79.792969 182.964844 57.917969 162.113281 43.046875 C 162.453125 43.304688 162.796875 43.5625 163.136719 43.730469 C 186.296875 60.738281 182.449219 85.945312 154.507812 100.046875 C 126.5625 114.148438 85.117188 111.753906 61.960938 94.75 C 41.792969 79.964844 41.792969 58.515625 61.960938 43.730469 C 62.300781 43.476562 62.644531 43.21875 62.984375 43.046875 Z M 62.984375 43.046875 " fill-opacity="1" fill-rule="nonzero"/><path fill="#cad2c5" d="M 91.441406 29.804688 C 63.667969 36.894531 50.507812 56.378906 62.128906 73.300781 C 73.753906 90.21875 105.796875 98.253906 133.65625 91.160156 C 161.429688 84.066406 174.589844 64.582031 162.964844 47.664062 C 157.414062 39.546875 146.902344 33.136719 133.65625 29.804688 C 134.425781 29.972656 135.195312 30.230469 135.878906 30.402344 C 163.480469 38.261719 175.441406 58.257812 162.625 75.09375 C 149.722656 91.929688 116.90625 99.191406 89.21875 91.332031 C 61.617188 83.46875 49.652344 63.472656 62.472656 46.636719 C 67.941406 39.460938 77.425781 33.734375 89.21875 30.402344 C 89.988281 30.144531 90.757812 29.972656 91.441406 29.804688 Z M 91.441406 29.804688 " fill-opacity="1" fill-rule="nonzero"/><g clip-path="url(#c12ef8ca91)"><path fill="#cad2c5" d="M 70.164062 53.730469 C 70.164062 39.460938 89.132812 27.921875 112.546875 27.921875 C 135.964844 27.921875 154.933594 39.460938 154.933594 53.730469 C 154.933594 68 135.964844 79.539062 112.546875 79.539062 C 89.132812 79.539062 70.164062 68 70.164062 53.730469 Z M 69.480469 54.074219 C 69.480469 68.515625 88.707031 80.308594 112.546875 80.308594 C 136.304688 80.308594 155.617188 68.597656 155.617188 54.074219 C 155.617188 39.628906 136.390625 27.835938 112.546875 27.835938 C 88.792969 27.835938 69.480469 39.546875 69.480469 54.074219 Z M 69.480469 54.074219 " fill-opacity="1" fill-rule="nonzero"/></g><path fill="#cad2c5" d="M 83.664062 48.773438 C 83.664062 39.03125 96.570312 31.171875 112.546875 31.171875 C 128.527344 31.171875 141.433594 39.117188 141.433594 48.773438 C 141.433594 58.515625 128.527344 66.378906 112.546875 66.378906 C 96.570312 66.378906 83.664062 58.515625 83.664062 48.773438 Z M 82.980469 49.03125 C 82.980469 58.941406 96.226562 67.0625 112.546875 67.0625 C 128.871094 67.0625 142.117188 59.027344 142.117188 49.03125 C 142.117188 39.117188 128.871094 31 112.546875 31 C 96.226562 31 82.980469 39.03125 82.980469 49.03125 Z M 82.980469 49.03125 " fill-opacity="1" fill-rule="nonzero"/><path fill="#cad2c5" d="M 98.105469 45.785156 C 98.105469 40.914062 104.601562 36.980469 112.546875 36.980469 C 120.582031 36.980469 126.992188 40.914062 126.992188 45.785156 C 126.992188 50.652344 120.496094 54.585938 112.546875 54.585938 C 104.515625 54.585938 98.105469 50.652344 98.105469 45.785156 Z M 97.335938 45.867188 C 97.335938 50.996094 104.175781 55.097656 112.546875 55.097656 C 120.921875 55.097656 127.757812 50.996094 127.757812 45.867188 C 127.757812 40.742188 120.921875 36.640625 112.546875 36.640625 C 104.175781 36.640625 97.335938 40.742188 97.335938 45.867188 Z M 97.335938 45.867188 " fill-opacity="1" fill-rule="nonzero"/></svg>